<svg width="24" height="26" viewBox="0 0 24 26" fill="none" xmlns="http://www.w3.org/2000/svg">
<path d="M13.0005 0.857178L13.0005 0.107178H13.0005V0.857178ZM22.2856 17.0066H23.0356V17.0065L22.2856 17.0066ZM18.8394 21.0154L18.9389 21.7587L18.8394 21.0154ZM12.0005 21.5847V22.3347H12.0005L12.0005 21.5847ZM5.16064 21.0154L5.06112 21.7587H5.06113L5.16064 21.0154ZM1.71436 17.0066L0.964355 17.0065V17.0066H1.71436ZM2.58497 14.4637L1.9927 14.0036L2.58497 14.4637ZM21.4154 14.4645L20.8231 14.9246L21.4154 14.4645ZM13.0005 0.857178L13.0004 1.60718C16.4521 1.60736 19.2505 4.40557 19.2505 7.85718H20.0005H20.7505C20.7505 3.57706 17.2805 0.107409 13.0005 0.107178L13.0005 0.857178ZM20.0005 7.85718H19.2505V11.4518H20.0005H20.7505V7.85718H20.0005ZM21.4154 14.4645L20.8231 14.9246C21.2699 15.4999 21.5356 16.2211 21.5356 17.0066L22.2856 17.0066L23.0356 17.0065C23.0356 15.8761 22.6517 14.8335 22.0077 14.0044L21.4154 14.4645ZM22.2856 17.0066H21.5356C21.5356 18.6634 20.3496 20.0565 18.7398 20.272L18.8394 21.0154L18.9389 21.7587C21.3256 21.4392 23.0356 19.382 23.0356 17.0066H22.2856ZM18.8394 21.0154L18.7398 20.272C16.65 20.5518 14.0279 20.8347 12.0005 20.8347L12.0005 21.5847L12.0005 22.3347C14.1333 22.3347 16.8381 22.04 18.9389 21.7587L18.8394 21.0154ZM12.0005 21.5847V20.8347C9.97298 20.8347 7.3501 20.5518 5.26016 20.272L5.16064 21.0154L5.06113 21.7587C7.1621 22.04 9.86761 22.3347 12.0005 22.3347V21.5847ZM5.16064 21.0154L5.26016 20.272C3.65044 20.0565 2.46436 18.6634 2.46436 17.0066H1.71436H0.964355C0.964355 19.3819 2.67439 21.4392 5.06112 21.7587L5.16064 21.0154ZM1.71436 17.0066L2.46436 17.0066C2.4644 16.2209 2.7302 15.4993 3.17724 14.9239L2.58497 14.4637L1.9927 14.0036C1.34847 14.8328 0.964422 15.8759 0.964355 17.0065L1.71436 17.0066ZM4.00049 11.4502H4.75049V7.85718H4.00049H3.25049V11.4502H4.00049ZM4.00049 7.85718H4.75049C4.75049 4.4054 7.54871 1.60718 11.0005 1.60718V0.857178V0.107178C6.72028 0.107178 3.25049 3.57697 3.25049 7.85718H4.00049ZM11.0005 0.857178V1.60718H13.0005V0.857178V0.107178H11.0005V0.857178ZM2.58497 14.4637L3.17724 14.9239C3.847 14.0617 4.75049 12.8794 4.75049 11.4502H4.00049H3.25049C3.25049 12.2877 2.71355 13.0757 1.9927 14.0036L2.58497 14.4637ZM20.0005 11.4518H19.2505C19.2505 12.8806 20.1535 14.0627 20.8231 14.9246L21.4154 14.4645L22.0077 14.0044C21.2871 13.0768 20.7505 12.289 20.7505 11.4518H20.0005Z" fill="#717171"/>
<path d="M14.8569 23.7662C14.2918 24.4238 13.3255 24.8571 12.2284 24.8571C11.1313 24.8571 10.1649 24.4238 9.59985 23.7662" stroke="#717171" stroke-width="1.5" stroke-linecap="round"/>
</svg>
